<svg version="1.1" id="Layer_1" xmlns="http://www.w3.org/2000/svg" xmlns:xlink="http://www.w3.org/1999/xlink" x="0px" y="0px"
	 width="100%" viewBox="0 0 225 225" enable-background="new 0 0 225 225" xml:space="preserve">
<path fill="#0375B3" opacity="1.000000" stroke="none" 
	d="
M1.000000,212.000000 
	C1.000000,212.000000 1.000000,211.500000 1.351295,211.003235 
	C1.797941,209.350449 1.976461,208.194458 1.976731,207.038437 
	C1.991352,144.385025 1.997249,81.731598 1.950743,19.078224 
	C1.949734,17.718582 1.330721,16.359398 1.000000,15.000000 
	C1.000000,15.000000 1.000000,14.500000 1.337225,14.170023 
	C4.513601,7.572236 8.628050,2.811617 16.378025,1.877136 
	C80.598915,1.968819 144.351929,1.978865 208.104950,1.979245 
	C209.098892,1.979251 210.092819,1.860215 211.453369,1.865171 
	C218.920685,3.535857 223.452606,7.765975 225.061157,15.400865 
	C225.008118,79.050995 225.001480,142.230927 225.053177,205.410812 
	C225.054703,207.274124 225.670563,209.136948 226.000000,211.000000 
	C226.000000,211.000000 226.000000,211.500000 225.669708,211.870789 
	C222.950638,219.159683 218.598068,223.917953 210.618042,225.120331 
	C146.399216,225.030563 82.648270,225.020828 18.897326,225.020645 
	C17.903320,225.020645 16.909317,225.138336 15.551606,225.132660 
	C7.537832,223.881470 4.264840,217.945160 1.000000,212.000000 
M125.438370,94.017357 
	C124.040855,95.693291 122.643341,97.369232 120.346756,100.123344 
	C120.346756,94.409004 120.346756,90.141037 120.346756,85.743164 
	C109.629417,85.743164 99.417542,85.743164 89.199287,85.743164 
	C89.199287,121.357803 89.199287,156.590912 89.199287,191.878601 
	C100.157410,191.878601 110.741791,191.878601 121.592987,191.878601 
	C121.689690,190.308090 121.836929,189.013824 121.838882,187.719330 
	C121.864258,170.887833 121.662704,154.052109 122.004486,137.227325 
	C122.107239,132.169037 123.031616,126.891808 124.777489,122.156532 
	C127.550514,114.635315 135.068161,111.154823 144.066940,112.126060 
	C151.861771,112.967369 156.388229,117.147141 157.952209,125.546013 
	C158.679489,129.451691 158.970169,133.486710 158.997528,137.466278 
	C159.109756,153.797165 159.044571,170.129272 159.044647,186.460922 
	C159.044662,188.226761 159.044647,189.992599 159.044647,191.815338 
	C170.514801,191.815338 181.247742,191.815338 192.088852,191.815338 
	C192.197449,190.657562 192.341156,189.844727 192.340042,189.032104 
	C192.311584,168.368149 192.444611,147.701416 192.118195,127.041985 
	C192.021652,120.930046 191.064819,114.739052 189.719193,108.760529 
	C187.534225,99.052849 182.196274,91.347313 173.033539,86.860474 
	C157.621231,79.313332 138.674423,82.047043 125.438370,94.017357 
M67.958717,166.500000 
	C67.958717,139.600296 67.958717,112.700600 67.958717,85.663635 
	C56.533241,85.663635 45.947437,85.663635 35.129227,85.663635 
	C35.129227,121.190071 35.129227,156.412048 35.129227,191.787201 
	C46.137424,191.787201 56.835972,191.787201 67.958717,191.787201 
	C67.958717,183.435471 67.958717,175.467728 67.958717,166.500000 
M59.224575,34.054646 
	C51.129189,31.002918 43.692097,32.068127 37.620724,38.354061 
	C32.042149,44.129780 30.692902,51.181911 33.586815,58.703342 
	C36.414333,66.052216 42.026196,70.111511 49.845676,70.883034 
	C58.710140,71.757645 67.183044,66.023468 69.857605,57.538177 
	C72.740959,48.390488 69.146996,40.012684 59.224575,34.054646 
z"/>
<path fill="#93C4DE" opacity="1.000000" stroke="none" 
	d="
M1.000000,15.468657 
	C1.330721,16.359398 1.949734,17.718582 1.950743,19.078224 
	C1.997249,81.731598 1.991352,144.385025 1.976731,207.038437 
	C1.976461,208.194458 1.797941,209.350449 1.351295,210.753235 
	C1.000000,145.979111 1.000000,80.958206 1.000000,15.468657 
z"/>
<path fill="#93C4DE" opacity="1.000000" stroke="none" 
	d="
M226.000000,210.531342 
	C225.670563,209.136948 225.054703,207.274124 225.053177,205.410812 
	C225.001480,142.230927 225.008118,79.050995 225.282837,15.409423 
	C225.559357,14.947771 226.000000,15.000000 226.000000,15.000000 
	C226.000000,80.020897 226.000000,145.041794 226.000000,210.531342 
z"/>
<path fill="#A4CDE3" opacity="1.000000" stroke="none" 
	d="
M211.086761,1.796733 
	C210.092819,1.860215 209.098892,1.979251 208.104950,1.979245 
	C144.351929,1.978865 80.598915,1.968819 16.383682,1.676577 
	C15.921460,1.393516 16.000000,1.000000 16.000000,1.000000 
	C80.687561,1.000000 145.375122,1.000000 210.568604,1.197487 
	C211.074539,1.394973 211.086761,1.796733 211.086761,1.796733 
z"/>
<path fill="#A4CDE3" opacity="1.000000" stroke="none" 
	d="
M15.915312,225.201096 
	C16.909317,225.138336 17.903320,225.020645 18.897326,225.020645 
	C82.648270,225.020828 146.399216,225.030563 210.610962,225.321564 
	C211.071777,225.603683 211.000000,226.000000 211.000000,226.000000 
	C146.312439,226.000000 81.624878,226.000000 16.433125,225.801804 
	C15.928932,225.603607 15.915312,225.201096 15.915312,225.201096 
z"/>
<path fill="#F1F7FB" opacity="1.000000" stroke="none" 
	d="
M15.551606,225.132660 
	C15.915312,225.201096 15.928932,225.603607 15.964466,225.801804 
	C11.078642,226.000000 6.157284,226.000000 1.000000,226.000000 
	C1.000000,221.651215 1.000000,217.299744 1.000000,212.474121 
	C4.264840,217.945160 7.537832,223.881470 15.551606,225.132660 
z"/>
<path fill="#F2F7FB" opacity="1.000000" stroke="none" 
	d="
M211.472656,226.000000 
	C211.000000,226.000000 211.071777,225.603683 211.078857,225.402435 
	C218.598068,223.917953 222.950638,219.159683 225.669708,212.120789 
	C226.000000,216.593750 226.000000,221.187500 226.000000,226.000000 
	C221.316574,226.000000 216.630936,226.000000 211.472656,226.000000 
z"/>
<path fill="#F3F8FB" opacity="1.000000" stroke="none" 
	d="
M211.453369,1.865171 
	C211.086761,1.796733 211.074539,1.394973 211.037262,1.197487 
	C215.921356,1.000000 220.842712,1.000000 226.000000,1.000000 
	C226.000000,5.348784 226.000000,9.700264 226.000000,14.525872 
	C226.000000,15.000000 225.559357,14.947771 225.337662,14.939213 
	C223.452606,7.765975 218.920685,3.535857 211.453369,1.865171 
z"/>
<path fill="#F4F9FC" opacity="1.000000" stroke="none" 
	d="
M15.527336,1.000000 
	C16.000000,1.000000 15.921460,1.393516 15.915802,1.594075 
	C8.628050,2.811617 4.513601,7.572236 1.337225,13.920023 
	C1.000000,9.736838 1.000000,5.473677 1.000000,1.000000 
	C5.683537,1.000000 10.369105,1.000000 15.527336,1.000000 
z"/>
<path fill="#FCFDFE" opacity="1.000000" stroke="none" 
	d="
M125.692413,93.755211 
	C138.674423,82.047043 157.621231,79.313332 173.033539,86.860474 
	C182.196274,91.347313 187.534225,99.052849 189.719193,108.760529 
	C191.064819,114.739052 192.021652,120.930046 192.118195,127.041985 
	C192.444611,147.701416 192.311584,168.368149 192.340042,189.032104 
	C192.341156,189.844727 192.197449,190.657562 192.088852,191.815338 
	C181.247742,191.815338 170.514801,191.815338 159.044647,191.815338 
	C159.044647,189.992599 159.044662,188.226761 159.044647,186.460922 
	C159.044571,170.129272 159.109756,153.797165 158.997528,137.466278 
	C158.970169,133.486710 158.679489,129.451691 157.952209,125.546013 
	C156.388229,117.147141 151.861771,112.967369 144.066940,112.126060 
	C135.068161,111.154823 127.550514,114.635315 124.777489,122.156532 
	C123.031616,126.891808 122.107239,132.169037 122.004486,137.227325 
	C121.662704,154.052109 121.864258,170.887833 121.838882,187.719330 
	C121.836929,189.013824 121.689690,190.308090 121.592987,191.878601 
	C110.741791,191.878601 100.157410,191.878601 89.199287,191.878601 
	C89.199287,156.590912 89.199287,121.357803 89.199287,85.743164 
	C99.417542,85.743164 109.629417,85.743164 120.346756,85.743164 
	C120.346756,90.141037 120.346756,94.409004 120.346756,100.123344 
	C122.643341,97.369232 124.040855,95.693291 125.692413,93.755211 
z"/>
<path fill="#FBFDFE" opacity="1.000000" stroke="none" 
	d="
M67.958717,167.000000 
	C67.958717,175.467728 67.958717,183.435471 67.958717,191.787201 
	C56.835972,191.787201 46.137424,191.787201 35.129227,191.787201 
	C35.129227,156.412048 35.129227,121.190071 35.129227,85.663635 
	C45.947437,85.663635 56.533241,85.663635 67.958717,85.663635 
	C67.958717,112.700600 67.958717,139.600296 67.958717,167.000000 
z"/>
<path fill="#F9FCFD" opacity="1.000000" stroke="none" 
	d="
M59.571545,34.211983 
	C69.146996,40.012684 72.740959,48.390488 69.857605,57.538177 
	C67.183044,66.023468 58.710140,71.757645 49.845676,70.883034 
	C42.026196,70.111511 36.414333,66.052216 33.586815,58.703342 
	C30.692902,51.181911 32.042149,44.129780 37.620724,38.354061 
	C43.692097,32.068127 51.129189,31.002918 59.571545,34.211983 
z"/>
</svg>